<?xml version="1.0" encoding="iso-8859-1"?>
<!-- Generator: Adobe Illustrator 19.0.0, SVG Export Plug-In . SVG Version: 6.00 Build 0)  -->
<svg version="1.1" id="Capa_1" xmlns="http://www.w3.org/2000/svg" xmlns:xlink="http://www.w3.org/1999/xlink" x="0px" y="0px"
	 viewBox="0 0 512 512" style="enable-background:new 0 0 512 512;" xml:space="preserve">
<path style="fill:#ED3124;" d="M512,225.023v-60.982c0-2.721-1.97-5.099-4.667-5.465c-16.787-2.278-29.729-16.671-29.729-34.082
	c0-0.019,0-0.039,0-0.058c0.005-3.093-2.424-5.633-5.517-5.633H39.913c-3.093,0-5.522,2.54-5.517,5.633c0,0.019,0,0.039,0,0.058
	c0,17.411-12.942,31.804-29.729,34.082C1.97,158.942,0,161.319,0,164.041v60.982c0,2.674,1.919,4.96,4.552,5.426
	C16.712,232.6,25.95,243.222,25.95,256c0,12.778-9.237,23.4-21.398,25.552C1.919,282.018,0,284.303,0,286.977v60.982
	c0,2.721,1.97,5.099,4.667,5.465c16.787,2.278,29.729,16.671,29.729,34.082c0,0.019,0,0.039,0,0.058
	c-0.005,3.093,2.424,5.633,5.517,5.633h432.174c3.093,0,5.522-2.54,5.517-5.633c0-0.019,0-0.039,0-0.058
	c0-17.411,12.942-31.804,29.729-34.082c2.697-0.366,4.667-2.743,4.667-5.465v-60.982c0-2.674-1.919-4.96-4.552-5.426
	C495.287,279.4,486.05,268.778,486.05,256c0-12.778,9.237-23.4,21.398-25.552C510.081,229.982,512,227.697,512,225.023z"/>
<path style="fill:#D8231E;" d="M486.046,256c0,12.776,9.242,23.399,21.4,25.553c2.638,0.464,4.554,2.751,4.554,5.42v60.986
	c0,2.72-1.968,5.1-4.668,5.461c-16.784,2.287-29.725,16.671-29.725,34.084v0.062c0,3.091-2.432,5.636-5.523,5.636h-25.851
	c0.701-17.701,10.741-44.271,27.969-46.609c2.844-0.381,4.915-2.895,4.915-5.76V174.259c0-2.864-2.071-5.378-4.915-5.76
	c-17.227-2.339-27.268-31.999-27.969-49.701h25.851c3.091,0,5.523,2.545,5.523,5.636v0.062c0,17.413,12.941,31.797,29.725,34.084
	c2.7,0.361,4.668,2.741,4.668,5.461v60.986c0,2.669-1.916,4.956-4.554,5.42C495.288,232.601,486.046,243.224,486.046,256z"/>
<path style="fill:#E2EEFD;" d="M431.703,356.329H80.297c-2.845,0-5.152-2.307-5.152-5.152V160.823c0-2.845,2.307-5.152,5.152-5.152
	h351.406c2.845,0,5.152,2.307,5.152,5.152v190.354C436.854,354.022,434.548,356.329,431.703,356.329z"/>
<path style="fill:#C7DCF2;" d="M431.703,356.329h-24.242V155.671h24.242c2.845,0,5.152,2.307,5.152,5.152v190.354
	C436.854,354.022,434.548,356.329,431.703,356.329z"/>
<g>
	<path style="fill:#707487;" d="M143.129,215.902h-34.865c-3.86,0-7,3.259-7,7.265s3.14,7.265,7,7.265h10.168v53.045
		c0,4.041,3.161,7.089,7.353,7.089c4.123,0,7.352-3.114,7.352-7.089v-53.045h9.992c3.991,0,7.001-3.16,7.001-7.352
		C150.13,219.054,147.054,215.902,143.129,215.902z"/>
	<path style="fill:#707487;" d="M166.46,215.902c-4.192,0-7.353,3.01-7.353,7.001v60.573c0,3.974,3.23,7.089,7.353,7.089
		c4.191,0,7.352-3.048,7.352-7.089v-60.573C173.813,218.912,170.652,215.902,166.46,215.902z"/>
	<path style="fill:#707487;" d="M210.921,230.432c6.588,0,7.747,3.097,7.969,6.164c0.111,3.941,3.168,6.779,7.35,6.779
		c3.554,0,7.352-2.116,7.352-8.057c0-9.648-7.787-19.416-22.672-19.416c-14.256,0-23.112,9.059-23.112,23.642v27.909
		c0,14.582,8.755,23.641,22.848,23.641c15.058,0,22.936-9.767,22.936-19.415c0-6.005-3.844-8.145-7.441-8.145
		c-3.925,0-6.799,2.536-7.224,6.335c-0.669,4.178-1.132,6.695-7.744,6.695c-6.482,0-8.67-2.299-8.67-9.111v-27.909
		C202.515,233.773,203.89,230.432,210.921,230.432z"/>
	<path style="fill:#707487;" d="M271.706,249.164l17.049-21.254c1.155-1.178,1.803-2.797,1.803-4.566
		c0-3.964-3.519-7.442-7.529-7.442c-2.266,0-4.342,1.025-5.615,2.758l-17.759,22.387v-18.144c0-3.992-3.161-7.001-7.352-7.001
		c-4.192,0-7.353,3.01-7.353,7.001v60.573c0,3.974,3.23,7.089,7.353,7.089c4.191,0,7.352-3.048,7.352-7.089v-19.228l2.392-2.975
		l17.371,25.986c1.367,2.127,3.599,3.394,5.989,3.394c4.128,0,7.617-3.367,7.617-7.352c0-1.519-0.485-2.939-1.379-4.069
		L271.706,249.164z"/>
	<path style="fill:#707487;" d="M339.816,230.432c3.926,0,7.001-3.23,7.001-7.352c0-4.091-3.01-7.177-7.001-7.177h-31.343
		c-4.074,0-7.265,3.114-7.265,7.09v60.485c0,3.974,3.191,7.089,7.265,7.089h31.343c3.992,0,7.001-3.086,7.001-7.177
		c0-4.122-3.075-7.352-7.001-7.352h-23.901v-15.67h8.846c3.926,0,7.001-3.113,7.001-7.088c0-4.074-3.075-7.265-7.001-7.265h-8.846
		v-15.582L339.816,230.432L339.816,230.432z"/>
	<path style="fill:#707487;" d="M392.73,215.902h-34.865c-3.861,0-7.001,3.259-7.001,7.265s3.14,7.265,7.001,7.265h10.168v53.045
		c0,4.041,3.16,7.089,7.352,7.089c4.123,0,7.353-3.114,7.353-7.089v-53.045h9.992c3.992,0,7.001-3.16,7.001-7.352
		C399.732,219.054,396.657,215.902,392.73,215.902z"/>
</g>
<g>
</g>
<g>
</g>
<g>
</g>
<g>
</g>
<g>
</g>
<g>
</g>
<g>
</g>
<g>
</g>
<g>
</g>
<g>
</g>
<g>
</g>
<g>
</g>
<g>
</g>
<g>
</g>
<g>
</g>
</svg>
